<svg width="8" height="6" viewBox="0 0 8 6" fill="none" xmlns="http://www.w3.org/2000/svg">
<path d="M7.95008 0.411898C7.91653 0.330966 7.86736 0.25744 7.80537 0.195524C7.74346 0.13354 7.66993 0.0843675 7.589 0.050818C7.50807 0.0172684 7.42131 0 7.3337 0C7.24609 0 7.15934 0.0172684 7.07841 0.050818C6.99748 0.0843675 6.92395 0.13354 6.86204 0.195524L2.66704 4.39136L1.1387 2.86219C1.01361 2.7371 0.843947 2.66682 0.667037 2.66682C0.490128 2.66682 0.320464 2.7371 0.19537 2.86219C0.0702764 2.98728 0 3.15695 0 3.33386C0 3.51077 0.0702764 3.68043 0.19537 3.80553L2.19537 5.80553C2.25729 5.86751 2.33081 5.91668 2.41174 5.95023C2.49268 5.98378 2.57943 6.00105 2.66704 6.00105C2.75465 6.00105 2.8414 5.98378 2.92233 5.95023C3.00326 5.91668 3.07679 5.86751 3.1387 5.80553L7.80537 1.13886C7.86736 1.07694 7.91653 1.00342 7.95008 0.922485C7.98363 0.841553 8.00089 0.754801 8.00089 0.667191C8.00089 0.579581 7.98363 0.49283 7.95008 0.411898Z" fill="white"/>
</svg>
