<svg width="18" height="13" viewBox="0 0 18 13" fill="none" xmlns="http://www.w3.org/2000/svg">
<path d="M16.5 0.328125H1.5C1.33424 0.328125 1.17527 0.393973 1.05806 0.511183C0.940848 0.628394 0.875 0.787365 0.875 0.953125V11.5781C0.875 11.9096 1.0067 12.2276 1.24112 12.462C1.47554 12.6964 1.79348 12.8281 2.125 12.8281H15.875C16.2065 12.8281 16.5245 12.6964 16.7589 12.462C16.9933 12.2276 17.125 11.9096 17.125 11.5781V0.953125C17.125 0.787365 17.0592 0.628394 16.9419 0.511183C16.8247 0.393973 16.6658 0.328125 16.5 0.328125ZM14.893 1.57812L9 6.98047L3.10703 1.57812H14.893ZM15.875 11.5781H2.125V2.37422L8.57734 8.28906C8.69265 8.39491 8.84348 8.45364 9 8.45364C9.15652 8.45364 9.30735 8.39491 9.42266 8.28906L15.875 2.37422V11.5781Z" fill="#98A2B3"/>
</svg>
