<svg width="20" height="16" viewBox="0 0 20 16" fill="none" xmlns="http://www.w3.org/2000/svg">
<path d="M4.21249 0.282499C4.15761 0.220629 4.09099 0.170268 4.01649 0.134335C3.942 0.0984018 3.86111 0.0776112 3.77853 0.0731681C3.69594 0.0687251 3.61329 0.0807179 3.53537 0.108452C3.45746 0.136185 3.38582 0.179108 3.32461 0.234732C3.2634 0.290357 3.21384 0.357576 3.17881 0.432495C3.14377 0.507413 3.12395 0.588541 3.1205 0.671175C3.11704 0.75381 3.13003 0.836308 3.15869 0.913889C3.18736 0.991469 3.23114 1.06259 3.28749 1.12312L4.79062 2.77703C1.95312 4.51844 0.732805 7.20281 0.678899 7.32469C0.643362 7.40462 0.625 7.49112 0.625 7.57859C0.625 7.66607 0.643362 7.75257 0.678899 7.8325C0.706243 7.89422 1.36796 9.36141 2.83905 10.8325C4.79921 12.7919 7.27499 13.8278 9.99999 13.8278C11.4005 13.8358 12.7868 13.5474 14.068 12.9817L15.7867 14.8731C15.8416 14.935 15.9082 14.9854 15.9827 15.0213C16.0572 15.0572 16.1381 15.078 16.2207 15.0825C16.3033 15.0869 16.3859 15.0749 16.4638 15.0472C16.5417 15.0194 16.6134 14.9765 16.6746 14.9209C16.7358 14.8653 16.7854 14.798 16.8204 14.7231C16.8554 14.6482 16.8753 14.5671 16.8787 14.4844C16.8822 14.4018 16.8692 14.3193 16.8405 14.2417C16.8118 14.1642 16.7681 14.093 16.7117 14.0325L4.21249 0.282499ZM7.91015 6.2075L11.1656 9.78953C10.6754 10.0474 10.1134 10.1352 9.56783 10.0391C9.02229 9.94297 8.52413 9.66838 8.15157 9.25844C7.77901 8.84851 7.55314 8.32644 7.50945 7.77423C7.46575 7.22202 7.6067 6.67093 7.91015 6.2075ZM9.99999 12.5778C7.5953 12.5778 5.49452 11.7036 3.75546 9.98015C3.04164 9.27077 2.43454 8.46155 1.95312 7.57781C2.31952 6.89109 3.48905 4.96922 5.65234 3.72L7.05859 5.26297C6.51416 5.96024 6.23377 6.82753 6.26697 7.71154C6.30017 8.59555 6.64483 9.43937 7.24002 10.0938C7.83521 10.7483 8.64261 11.1713 9.51952 11.288C10.3964 11.4047 11.2864 11.2077 12.032 10.7317L13.1828 11.9973C12.1672 12.387 11.0878 12.5838 9.99999 12.5778ZM10.4687 5.12234C10.3059 5.09126 10.162 4.99676 10.0689 4.85962C9.97568 4.72249 9.94079 4.55395 9.97187 4.39109C10.0029 4.22823 10.0975 4.08439 10.2346 3.99121C10.3717 3.89803 10.5403 3.86314 10.7031 3.89422C11.4997 4.04865 12.225 4.45644 12.7708 5.05679C13.3167 5.65713 13.6539 6.41784 13.732 7.22547C13.7475 7.3905 13.6967 7.55491 13.5909 7.68252C13.4851 7.81013 13.333 7.89049 13.168 7.90594C13.1484 7.90708 13.1289 7.90708 13.1094 7.90594C12.9532 7.90661 12.8024 7.84875 12.6867 7.74377C12.571 7.63879 12.4988 7.49429 12.4844 7.33875C12.4318 6.80156 12.2072 6.29569 11.844 5.89636C11.4809 5.49703 10.9985 5.22557 10.4687 5.12234ZM19.3187 7.8325C19.2859 7.90594 18.4945 9.65828 16.7125 11.2544C16.6516 11.3106 16.5801 11.3542 16.5022 11.3826C16.4243 11.411 16.3415 11.4236 16.2587 11.4197C16.1759 11.4158 16.0947 11.3954 16.0198 11.3598C15.9449 11.3242 15.8779 11.274 15.8226 11.2122C15.7673 11.1504 15.7249 11.0783 15.6977 10.9999C15.6706 10.9216 15.6593 10.8386 15.6645 10.7559C15.6698 10.6731 15.6914 10.5923 15.7282 10.518C15.765 10.4437 15.8162 10.3774 15.8789 10.3231C16.7532 9.53767 17.4876 8.60935 18.0508 7.57781C17.5683 6.69326 16.9599 5.8835 16.2445 5.17391C14.5055 3.45203 12.4047 2.57781 9.99999 2.57781C9.49332 2.57719 8.98745 2.61822 8.48749 2.70047C8.40619 2.71485 8.32284 2.71297 8.24227 2.69496C8.1617 2.67694 8.08549 2.64314 8.01805 2.5955C7.95062 2.54787 7.89329 2.48734 7.84938 2.41742C7.80547 2.3475 7.77584 2.26958 7.76222 2.18815C7.7486 2.10671 7.75124 2.02339 7.77 1.94299C7.78877 1.86258 7.82327 1.78669 7.87153 1.7197C7.91979 1.65271 7.98085 1.59595 8.05117 1.55268C8.12149 1.50942 8.19969 1.48052 8.28124 1.46766C8.84934 1.37385 9.4242 1.32708 9.99999 1.32781C12.725 1.32781 15.2008 2.36375 17.1609 4.3239C18.632 5.795 19.2937 7.26297 19.3211 7.32469C19.3566 7.40462 19.375 7.49112 19.375 7.57859C19.375 7.66607 19.3566 7.75257 19.3211 7.8325H19.3187Z" fill="#98A2B3"/>
</svg>
