<svg width="16" height="18" viewBox="0 0 16 18" fill="none" xmlns="http://www.w3.org/2000/svg">
<path d="M14.25 5.82812H11.75V3.95312C11.75 2.95856 11.3549 2.00474 10.6517 1.30147C9.94839 0.598213 8.99456 0.203125 8 0.203125C7.00544 0.203125 6.05161 0.598213 5.34835 1.30147C4.64509 2.00474 4.25 2.95856 4.25 3.95312V5.82812H1.75C1.41848 5.82812 1.10054 5.95982 0.866116 6.19424C0.631696 6.42866 0.5 6.7466 0.5 7.07812V15.8281C0.5 16.1596 0.631696 16.4776 0.866116 16.712C1.10054 16.9464 1.41848 17.0781 1.75 17.0781H14.25C14.5815 17.0781 14.8995 16.9464 15.1339 16.712C15.3683 16.4776 15.5 16.1596 15.5 15.8281V7.07812C15.5 6.7466 15.3683 6.42866 15.1339 6.19424C14.8995 5.95982 14.5815 5.82812 14.25 5.82812ZM5.5 3.95312C5.5 3.29008 5.76339 2.6542 6.23223 2.18536C6.70107 1.71652 7.33696 1.45312 8 1.45312C8.66304 1.45312 9.29893 1.71652 9.76777 2.18536C10.2366 2.6542 10.5 3.29008 10.5 3.95312V5.82812H5.5V3.95312ZM14.25 15.8281H1.75V7.07812H14.25V15.8281Z" fill="#98A2B3"/>
</svg>
