<svg width="42" height="44" viewBox="0 0 42 44" fill="none" xmlns="http://www.w3.org/2000/svg">
<path d="M39.3445 10.3332L17.7732 0.30109C17.0811 -0.0203006 16.2899 -0.0558784 15.5735 0.20218C14.8572 0.460238 14.2743 0.990802 13.9532 1.6772L0.972451 29.4428C0.813529 29.783 0.723747 30.1512 0.708235 30.5264C0.692723 30.9016 0.751785 31.2764 0.882048 31.6294C1.01231 31.9825 1.21122 32.3068 1.4674 32.5839C1.72359 32.861 2.03203 33.0854 2.37511 33.2444L23.9464 43.2765C24.2894 43.4359 24.6605 43.5268 25.0383 43.5437C25.4161 43.5607 25.7934 43.5035 26.1484 43.3754C26.5034 43.2473 26.8293 43.0509 27.1074 42.7973C27.3855 42.5436 27.6103 42.2379 27.769 41.8974L40.7498 14.1318C41.0697 13.4448 41.1013 12.6586 40.8377 11.9463C40.5742 11.2339 40.0371 10.6537 39.3445 10.3332ZM25.1544 40.6866L3.5814 30.654L16.5622 2.88837L38.1335 12.9205L25.1544 40.6866ZM17.3551 7.98522C17.5161 7.64227 17.8077 7.37735 18.1659 7.24869C18.5242 7.12004 18.9197 7.13818 19.2655 7.29913L33.0118 13.6908C33.3387 13.8423 33.5969 14.1098 33.7355 14.4406C33.8741 14.7713 33.883 15.1412 33.7604 15.4772C33.6379 15.8132 33.3928 16.0908 33.0736 16.2553C32.7544 16.4197 32.3842 16.4589 32.0363 16.3653C31.9548 16.3433 31.8753 16.3146 31.7986 16.2794L18.0528 9.88594C17.707 9.72478 17.4393 9.43404 17.3085 9.07762C17.1776 8.7212 17.1944 8.32827 17.3551 7.98522ZM14.9356 13.1642C15.0151 12.9941 15.1276 12.8415 15.2667 12.7149C15.4058 12.5883 15.5687 12.4903 15.7462 12.4264C15.9236 12.3625 16.1121 12.334 16.3009 12.3426C16.4897 12.3512 16.6751 12.3966 16.8465 12.4763L30.5923 18.8698C30.9222 19.0196 31.1835 19.2873 31.324 19.6194C31.4646 19.9516 31.4741 20.3237 31.3507 20.6615C31.2272 20.9994 30.9799 21.278 30.6581 21.4419C30.3363 21.6057 29.9637 21.6427 29.6146 21.5455C29.5324 21.5236 29.4523 21.4941 29.3756 21.4574L15.6293 15.0657C15.284 14.9038 15.017 14.6126 14.887 14.2561C14.7569 13.8995 14.7744 13.5068 14.9356 13.1642ZM12.5148 18.3409C12.6767 17.9992 12.9685 17.7357 13.3263 17.6081C13.6841 17.4805 14.0788 17.4991 14.4238 17.66L21.2951 20.8489C21.6218 21.0003 21.8799 21.2676 22.0186 21.5982C22.1572 21.9287 22.1663 22.2985 22.044 22.6344C21.9217 22.9703 21.677 23.248 21.358 23.4127C21.0391 23.5773 20.6692 23.617 20.3214 23.5238C20.2398 23.5019 20.1603 23.4731 20.0836 23.4379L13.2107 20.2411C12.8654 20.0797 12.5981 19.7889 12.4676 19.4326C12.3372 19.0763 12.3541 18.6837 12.5148 18.3409Z" fill="#444CE7"/>
</svg>
