<svg width="64" height="64" viewBox="0 0 64 64" fill="none" xmlns="http://www.w3.org/2000/svg">
<circle cx="32" cy="32" r="32" fill="#6172F3"/>
<path d="M35.4084 18.4248C33.8301 18.4262 32.2744 18.8009 30.8685 19.5183C29.4626 20.2356 28.2462 21.2753 27.3188 22.5524C26.3914 23.8296 25.7791 25.3079 25.5321 26.8668C25.285 28.4257 25.4101 30.021 25.8972 31.5223L18.7009 38.7173C18.6081 38.8102 18.5345 38.9206 18.4843 39.042C18.4341 39.1633 18.4083 39.2934 18.4084 39.4248V44.4248C18.4084 44.69 18.5138 44.9444 18.7013 45.1319C18.8889 45.3194 19.1432 45.4248 19.4084 45.4248H24.4084C24.6737 45.4248 24.928 45.3194 25.1156 45.1319C25.3031 44.9444 25.4084 44.69 25.4084 44.4248V42.4248H27.4084C27.6737 42.4248 27.928 42.3194 28.1156 42.1319C28.3031 41.9444 28.4084 41.69 28.4084 41.4248V39.4248H30.4084C30.5398 39.4249 30.6699 39.3991 30.7913 39.3489C30.9127 39.2988 31.023 39.2251 31.1159 39.1323L32.3109 37.9361C33.6854 38.3823 35.1401 38.5253 36.5751 38.3554C38.0101 38.1854 39.3913 37.7065 40.6234 36.9516C41.8555 36.1966 42.9094 35.1836 43.7125 33.9823C44.5156 32.781 45.0487 31.4199 45.2753 29.9927C45.5019 28.5656 45.4165 27.1063 45.0249 25.7153C44.6334 24.3243 43.945 23.0347 43.0073 21.9353C42.0695 20.8359 40.9047 19.9527 39.5928 19.3467C38.281 18.7407 36.8535 18.4262 35.4084 18.4248ZM35.4084 36.4248C34.3962 36.4265 33.3928 36.2352 32.4522 35.8611C32.2682 35.7812 32.0644 35.7585 31.8674 35.796C31.6703 35.8334 31.4891 35.9293 31.3472 36.0711L29.9947 37.4248H27.4084C27.1432 37.4248 26.8889 37.5302 26.7013 37.7177C26.5138 37.9052 26.4084 38.1596 26.4084 38.4248V40.4248H24.4084C24.1432 40.4248 23.8889 40.5302 23.7013 40.7177C23.5138 40.9052 23.4084 41.1596 23.4084 41.4248V43.4248H20.4084V39.8386L27.7622 32.4861C27.904 32.3442 27.9998 32.1629 28.0373 31.9659C28.0747 31.7688 28.0521 31.5651 27.9722 31.3811C27.3398 29.7909 27.234 28.0398 27.6704 26.385C28.1067 24.7303 29.0622 23.259 30.3964 22.1874C31.7307 21.1158 33.3734 20.5003 35.0834 20.4313C36.7933 20.3623 38.4803 20.8434 39.8966 21.8041C41.3128 22.7647 42.3838 24.1541 42.952 25.7683C43.5203 27.3826 43.5559 29.1365 43.0537 30.7724C42.5515 32.4084 41.538 33.8402 40.1619 34.8576C38.7858 35.875 37.1198 36.4243 35.4084 36.4248ZM39.4084 25.9248C39.4084 26.2215 39.3205 26.5115 39.1557 26.7582C38.9908 27.0048 38.7566 27.1971 38.4825 27.3106C38.2084 27.4242 37.9068 27.4539 37.6158 27.396C37.3248 27.3381 37.0576 27.1952 36.8478 26.9855C36.638 26.7757 36.4951 26.5084 36.4373 26.2174C36.3794 25.9265 36.4091 25.6249 36.5226 25.3508C36.6362 25.0767 36.8284 24.8424 37.0751 24.6776C37.3218 24.5128 37.6118 24.4248 37.9084 24.4248C38.3063 24.4248 38.6878 24.5828 38.9691 24.8641C39.2504 25.1454 39.4084 25.527 39.4084 25.9248Z" fill="white"/>
</svg>
